<svg width="121" height="27" viewBox="0 0 121 27" fill="none" xmlns="http://www.w3.org/2000/svg">
<path d="M7.19141 18.9268V20H2.21484V18.9268H7.19141ZM2.47461 10.0469V20H1.15527V10.0469H2.47461ZM12.2801 20.1367C11.7651 20.1367 11.298 20.0501 10.8787 19.877C10.464 19.6992 10.1062 19.4508 9.80547 19.1318C9.50924 18.8128 9.28138 18.4346 9.12187 17.9971C8.96237 17.5596 8.88262 17.0811 8.88262 16.5615V16.2744C8.88262 15.6729 8.97148 15.1374 9.14922 14.668C9.32695 14.194 9.56849 13.793 9.87383 13.4648C10.1792 13.1367 10.5255 12.8883 10.9129 12.7197C11.3003 12.5511 11.7013 12.4668 12.116 12.4668C12.6447 12.4668 13.1004 12.5579 13.4832 12.7402C13.8706 12.9225 14.1873 13.1777 14.4334 13.5059C14.6795 13.8294 14.8618 14.2122 14.9803 14.6543C15.0988 15.0918 15.158 15.5703 15.158 16.0898V16.6572H9.63457V15.625H13.8934V15.5293C13.8751 15.2012 13.8068 14.8822 13.6883 14.5723C13.5743 14.2624 13.3921 14.0072 13.1414 13.8066C12.8908 13.6061 12.549 13.5059 12.116 13.5059C11.8289 13.5059 11.5646 13.5674 11.323 13.6904C11.0815 13.8089 10.8742 13.9867 10.701 14.2236C10.5278 14.4606 10.3934 14.75 10.2977 15.0918C10.202 15.4336 10.1541 15.8278 10.1541 16.2744V16.5615C10.1541 16.9124 10.202 17.2428 10.2977 17.5527C10.3979 17.8581 10.5415 18.127 10.7283 18.3594C10.9197 18.5918 11.1499 18.7741 11.4187 18.9062C11.6922 19.0384 12.0021 19.1045 12.3484 19.1045C12.7951 19.1045 13.1733 19.0133 13.4832 18.8311C13.7931 18.6488 14.0643 18.4049 14.2967 18.0996L15.0623 18.708C14.9028 18.9495 14.7 19.1797 14.4539 19.3984C14.2078 19.6172 13.9048 19.7949 13.5447 19.9316C13.1893 20.0684 12.7677 20.1367 12.2801 20.1367ZM21.6959 18.7354V14.9277C21.6959 14.6361 21.6367 14.3831 21.5182 14.1689C21.4042 13.9502 21.2311 13.7816 20.9986 13.6631C20.7662 13.5446 20.4791 13.4854 20.1373 13.4854C19.8183 13.4854 19.538 13.54 19.2965 13.6494C19.0595 13.7588 18.8727 13.9023 18.7359 14.0801C18.6038 14.2578 18.5377 14.4492 18.5377 14.6543H17.273C17.273 14.39 17.3414 14.1279 17.4781 13.8682C17.6148 13.6084 17.8108 13.3737 18.066 13.1641C18.3258 12.9499 18.6357 12.7812 18.9957 12.6582C19.3603 12.5306 19.7659 12.4668 20.2125 12.4668C20.7503 12.4668 21.2242 12.5579 21.6344 12.7402C22.0491 12.9225 22.3727 13.1982 22.6051 13.5674C22.8421 13.932 22.9605 14.39 22.9605 14.9414V18.3867C22.9605 18.6328 22.9811 18.8949 23.0221 19.1729C23.0676 19.4508 23.1337 19.6901 23.2203 19.8906V20H21.901C21.8372 19.8542 21.787 19.6605 21.7506 19.4189C21.7141 19.1729 21.6959 18.945 21.6959 18.7354ZM21.9146 15.5156L21.9283 16.4043H20.65C20.29 16.4043 19.9687 16.4339 19.6861 16.4932C19.4036 16.5479 19.1666 16.6322 18.9752 16.7461C18.7838 16.86 18.638 17.0036 18.5377 17.1768C18.4374 17.3454 18.3873 17.5436 18.3873 17.7715C18.3873 18.0039 18.4397 18.2158 18.5445 18.4072C18.6493 18.5986 18.8066 18.7513 19.0162 18.8652C19.2304 18.9746 19.4924 19.0293 19.8023 19.0293C20.1897 19.0293 20.5315 18.9473 20.8277 18.7832C21.124 18.6191 21.3587 18.4186 21.5318 18.1816C21.7096 17.9447 21.8053 17.7145 21.8189 17.4912L22.359 18.0996C22.3271 18.291 22.2405 18.5029 22.0992 18.7354C21.9579 18.9678 21.7688 19.1911 21.5318 19.4053C21.2994 19.6149 21.0214 19.7904 20.6979 19.9316C20.3788 20.0684 20.0188 20.1367 19.6178 20.1367C19.1165 20.1367 18.6767 20.0387 18.2984 19.8428C17.9247 19.6468 17.6331 19.3848 17.4234 19.0566C17.2184 18.724 17.1158 18.3525 17.1158 17.9424C17.1158 17.5459 17.1933 17.1973 17.3482 16.8965C17.5032 16.5911 17.7265 16.3382 18.0182 16.1377C18.3098 15.9326 18.6607 15.7777 19.0709 15.6729C19.4811 15.568 19.9391 15.5156 20.4449 15.5156H21.9146ZM26.9145 13.7656V20H25.6498V12.6035H26.8803L26.9145 13.7656ZM29.225 12.5625L29.2182 13.7383C29.1133 13.7155 29.0131 13.7018 28.9174 13.6973C28.8262 13.6882 28.7214 13.6836 28.6029 13.6836C28.3113 13.6836 28.0538 13.7292 27.8305 13.8203C27.6072 13.9115 27.418 14.0391 27.2631 14.2031C27.1081 14.3672 26.9851 14.5632 26.8939 14.791C26.8074 15.0143 26.7504 15.2604 26.723 15.5293L26.3676 15.7344C26.3676 15.2878 26.4109 14.8685 26.4975 14.4766C26.5886 14.0846 26.7276 13.7383 26.9145 13.4375C27.1013 13.1322 27.3383 12.8952 27.6254 12.7266C27.9171 12.5534 28.2634 12.4668 28.6645 12.4668C28.7556 12.4668 28.8604 12.4782 28.9789 12.501C29.0974 12.5192 29.1794 12.5397 29.225 12.5625ZM32.3586 14.1826V20H31.0939V12.6035H32.2902L32.3586 14.1826ZM32.0578 16.0215L31.5314 16.001C31.536 15.4951 31.6112 15.028 31.757 14.5996C31.9029 14.1667 32.1079 13.7907 32.3723 13.4717C32.6366 13.1527 32.951 12.9066 33.3156 12.7334C33.6848 12.5557 34.0926 12.4668 34.5393 12.4668C34.9038 12.4668 35.232 12.5169 35.5236 12.6172C35.8153 12.7129 36.0637 12.8678 36.2687 13.082C36.4784 13.2962 36.6379 13.5742 36.7473 13.916C36.8566 14.2533 36.9113 14.6657 36.9113 15.1533V20H35.6398V15.1396C35.6398 14.7523 35.5829 14.4424 35.4689 14.21C35.355 13.973 35.1887 13.8021 34.9699 13.6973C34.7512 13.5879 34.4823 13.5332 34.1633 13.5332C33.8488 13.5332 33.5617 13.5993 33.302 13.7314C33.0467 13.8636 32.8257 14.0459 32.6389 14.2783C32.4566 14.5107 32.313 14.7773 32.2082 15.0781C32.1079 15.3743 32.0578 15.6888 32.0578 16.0215ZM44.9627 14.0732V20H43.6912V12.6035H44.8943L44.9627 14.0732ZM44.7029 16.0215L44.115 16.001C44.1196 15.4951 44.1857 15.028 44.3133 14.5996C44.4409 14.1667 44.63 13.7907 44.8807 13.4717C45.1313 13.1527 45.4435 12.9066 45.8172 12.7334C46.1909 12.5557 46.6238 12.4668 47.116 12.4668C47.4624 12.4668 47.7814 12.5169 48.073 12.6172C48.3647 12.7129 48.6176 12.8656 48.8318 13.0752C49.046 13.2848 49.2124 13.5537 49.3309 13.8818C49.4493 14.21 49.5086 14.6064 49.5086 15.0713V20H48.2439V15.1328C48.2439 14.7454 48.1779 14.4355 48.0457 14.2031C47.9181 13.9707 47.7358 13.8021 47.4988 13.6973C47.2618 13.5879 46.9839 13.5332 46.6648 13.5332C46.2911 13.5332 45.979 13.5993 45.7283 13.7314C45.4777 13.8636 45.2771 14.0459 45.1268 14.2783C44.9764 14.5107 44.867 14.7773 44.7986 15.0781C44.7348 15.3743 44.7029 15.6888 44.7029 16.0215ZM49.4949 15.3242L48.6473 15.584C48.6518 15.1784 48.7179 14.7887 48.8455 14.415C48.9777 14.0413 49.1668 13.7087 49.4129 13.417C49.6635 13.1253 49.9712 12.8952 50.3357 12.7266C50.7003 12.5534 51.1173 12.4668 51.5867 12.4668C51.9832 12.4668 52.3341 12.5192 52.6395 12.624C52.9493 12.7288 53.2091 12.8906 53.4188 13.1094C53.6329 13.3236 53.7947 13.5993 53.9041 13.9365C54.0135 14.2738 54.0682 14.6748 54.0682 15.1396V20H52.7967V15.126C52.7967 14.7113 52.7306 14.39 52.5984 14.1621C52.4708 13.9297 52.2885 13.7679 52.0516 13.6768C51.8191 13.5811 51.5411 13.5332 51.2176 13.5332C50.9396 13.5332 50.6935 13.5811 50.4793 13.6768C50.2651 13.7725 50.0851 13.9046 49.9393 14.0732C49.7934 14.2373 49.6818 14.4264 49.6043 14.6406C49.5314 14.8548 49.4949 15.0827 49.4949 15.3242ZM56.3473 16.3838V16.2266C56.3473 15.6934 56.4247 15.1989 56.5797 14.7432C56.7346 14.2829 56.9579 13.8841 57.2496 13.5469C57.5413 13.2051 57.8945 12.9408 58.3092 12.7539C58.7239 12.5625 59.1887 12.4668 59.7037 12.4668C60.2232 12.4668 60.6904 12.5625 61.1051 12.7539C61.5244 12.9408 61.8798 13.2051 62.1715 13.5469C62.4677 13.8841 62.6933 14.2829 62.8482 14.7432C63.0032 15.1989 63.0807 15.6934 63.0807 16.2266V16.3838C63.0807 16.917 63.0032 17.4115 62.8482 17.8672C62.6933 18.3229 62.4677 18.7217 62.1715 19.0635C61.8798 19.4007 61.5266 19.665 61.1119 19.8564C60.7018 20.0433 60.2369 20.1367 59.7174 20.1367C59.1979 20.1367 58.7307 20.0433 58.316 19.8564C57.9013 19.665 57.5458 19.4007 57.2496 19.0635C56.9579 18.7217 56.7346 18.3229 56.5797 17.8672C56.4247 17.4115 56.3473 16.917 56.3473 16.3838ZM57.6119 16.2266V16.3838C57.6119 16.7529 57.6552 17.1016 57.7418 17.4297C57.8284 17.7533 57.9583 18.0404 58.1314 18.291C58.3092 18.5417 58.5302 18.7399 58.7945 18.8857C59.0589 19.027 59.3665 19.0977 59.7174 19.0977C60.0637 19.0977 60.3668 19.027 60.6266 18.8857C60.8909 18.7399 61.1096 18.5417 61.2828 18.291C61.456 18.0404 61.5859 17.7533 61.6725 17.4297C61.7636 17.1016 61.8092 16.7529 61.8092 16.3838V16.2266C61.8092 15.862 61.7636 15.5179 61.6725 15.1943C61.5859 14.8662 61.4537 14.5768 61.276 14.3262C61.1028 14.071 60.8841 13.8704 60.6197 13.7246C60.36 13.5788 60.0546 13.5059 59.7037 13.5059C59.3574 13.5059 59.052 13.5788 58.7877 13.7246C58.5279 13.8704 58.3092 14.071 58.1314 14.3262C57.9583 14.5768 57.8284 14.8662 57.7418 15.1943C57.6552 15.5179 57.6119 15.862 57.6119 16.2266ZM66.6312 13.7656V20H65.3666V12.6035H66.5971L66.6312 13.7656ZM68.9418 12.5625L68.935 13.7383C68.8301 13.7155 68.7299 13.7018 68.6342 13.6973C68.543 13.6882 68.4382 13.6836 68.3197 13.6836C68.0281 13.6836 67.7706 13.7292 67.5473 13.8203C67.324 13.9115 67.1348 14.0391 66.9799 14.2031C66.8249 14.3672 66.7019 14.5632 66.6107 14.791C66.5242 15.0143 66.4672 15.2604 66.4398 15.5293L66.0844 15.7344C66.0844 15.2878 66.1277 14.8685 66.2143 14.4766C66.3054 14.0846 66.4444 13.7383 66.6312 13.4375C66.8181 13.1322 67.0551 12.8952 67.3422 12.7266C67.6339 12.5534 67.9802 12.4668 68.3812 12.4668C68.4724 12.4668 68.5772 12.4782 68.6957 12.501C68.8142 12.5192 68.8962 12.5397 68.9418 12.5625ZM73.7434 20.1367C73.2284 20.1367 72.7613 20.0501 72.342 19.877C71.9273 19.6992 71.5695 19.4508 71.2688 19.1318C70.9725 18.8128 70.7447 18.4346 70.5852 17.9971C70.4257 17.5596 70.3459 17.0811 70.3459 16.5615V16.2744C70.3459 15.6729 70.4348 15.1374 70.6125 14.668C70.7902 14.194 71.0318 13.793 71.3371 13.4648C71.6425 13.1367 71.9888 12.8883 72.3762 12.7197C72.7635 12.5511 73.1646 12.4668 73.5793 12.4668C74.1079 12.4668 74.5637 12.5579 74.9465 12.7402C75.3339 12.9225 75.6506 13.1777 75.8967 13.5059C76.1428 13.8294 76.3251 14.2122 76.4436 14.6543C76.562 15.0918 76.6213 15.5703 76.6213 16.0898V16.6572H71.0979V15.625H75.3566V15.5293C75.3384 15.2012 75.2701 14.8822 75.1516 14.5723C75.0376 14.2624 74.8553 14.0072 74.6047 13.8066C74.354 13.6061 74.0122 13.5059 73.5793 13.5059C73.2922 13.5059 73.0279 13.5674 72.7863 13.6904C72.5448 13.8089 72.3374 13.9867 72.1643 14.2236C71.9911 14.4606 71.8566 14.75 71.7609 15.0918C71.6652 15.4336 71.6174 15.8278 71.6174 16.2744V16.5615C71.6174 16.9124 71.6652 17.2428 71.7609 17.5527C71.8612 17.8581 72.0048 18.127 72.1916 18.3594C72.383 18.5918 72.6132 18.7741 72.882 18.9062C73.1555 19.0384 73.4654 19.1045 73.8117 19.1045C74.2583 19.1045 74.6366 19.0133 74.9465 18.8311C75.2564 18.6488 75.5275 18.4049 75.76 18.0996L76.5256 18.708C76.3661 18.9495 76.1633 19.1797 75.9172 19.3984C75.6711 19.6172 75.368 19.7949 75.008 19.9316C74.6525 20.0684 74.231 20.1367 73.7434 20.1367Z" fill="#5A98D0"/>
<path d="M109.337 8.6582L108.005 9.94771L113.276 15.06H101.779V16.8891H113.276L108.005 22.0014L109.337 23.2909L116.895 15.9745L109.337 8.6582Z" fill="#5A98D0"/>
</svg>
